Coordinates
version=1
nRows=34
nColumns=38
inDegrees=no

Units are S.I. units (second, meters, Newtons, ...)
If the header above contains a line with 'inDegrees', this indicates whether rotational values are in degrees (yes) or radians (no).

endheader
time	pelvis_tilt	pelvis_list	pelvis_rotation	pelvis_tx	pelvis_ty	pelvis_tz	hip_flexion_r	hip_adduction_r	hip_rotation_r	knee_angle_r	ankle_angle_r	subtalar_angle_r	mtp_angle_r	hip_flexion_l	hip_adduction_l	hip_rotation_l	knee_angle_l	ankle_angle_l	subtalar_angle_l	mtp_angle_l	lumbar_extension	lumbar_bending	lumbar_rotation	arm_flex_r	arm_add_r	arm_rot_r	elbow_flex_r	pro_sup_r	wrist_flex_r	wrist_dev_r	arm_flex_l	arm_add_l	arm_rot_l	elbow_flex_l	pro_sup_l	wrist_flex_l	wrist_dev_l
13.77	2.04703	1.47331	-0.468365	0.723287	-0.578477	0.982261	0.0441672	0.0815902	-0.302185	0.242914	0.0590239	0	0	0.111909	-0.115317	-0.134556	0.321542	0.164537	0	0	-0.192553	0.206691	0.0157054	0.636538	-0.263559	0.312658	1.33479	1.5708	0	0	0.814165	-0.310743	0.60688	0.900165	1.5708	0	0
13.78	2.0397	1.47205	-0.460431	0.72257	-0.581644	0.982125	0.0483268	0.0823286	-0.302226	0.243551	0.0559175	0	0	0.104383	-0.11742	-0.136987	0.332723	0.170491	0	0	-0.190929	0.207365	0.0131537	0.63462	-0.263001	0.311015	1.33466	1.5708	0	0	0.811868	-0.312171	0.607081	0.904575	1.5708	0	0
13.79	2.03502	1.47046	-0.455812	0.721867	-0.584806	0.981991	0.0520506	0.0830716	-0.302676	0.244364	0.0533206	0	0	0.0961337	-0.119765	-0.14014	0.343875	0.175841	0	0	-0.189741	0.208039	0.0116268	0.633262	-0.263301	0.310335	1.33488	1.5708	0	0	0.809674	-0.313137	0.607055	0.908548	1.5708	0	0
13.8	2.02826	1.46837	-0.449613	0.721172	-0.587946	0.981858	0.0553606	0.0845176	-0.302901	0.244342	0.0504982	0	0	0.0876884	-0.122779	-0.143584	0.355217	0.180782	0	0	-0.188559	0.20922	0.0107426	0.632072	-0.264274	0.309993	1.33522	1.5708	0	0	0.806983	-0.313937	0.606619	0.912356	1.5708	0	0
13.81	2.02021	1.46585	-0.442306	0.72047	-0.59106	0.98171	0.0583318	0.0863715	-0.303574	0.243898	0.04752	0	0	0.0790818	-0.12628	-0.146748	0.366717	0.185873	0	0	-0.187417	0.210841	0.0099939	0.630905	-0.265138	0.309882	1.33533	1.5708	0	0	0.803911	-0.314472	0.605101	0.916239	1.5708	0	0
13.82	2.01428	1.46324	-0.437275	0.719725	-0.594159	0.981561	0.0607176	0.0881488	-0.30428	0.242797	0.0441609	0	0	0.0699568	-0.129662	-0.149789	0.377756	0.191301	0	0	-0.186484	0.21238	0.00921207	0.630248	-0.265873	0.31068	1.33445	1.5708	0	0	0.800686	-0.314737	0.601925	0.920132	1.5708	0	0
13.83	2.01148	1.46069	-0.435253	0.718906	-0.597263	0.981419	0.062594	0.0896576	-0.304695	0.241288	0.0406025	0	0	0.0603109	-0.132648	-0.152153	0.388167	0.196835	0	0	-0.185807	0.213708	0.00803238	0.630346	-0.266845	0.312978	1.33287	1.5708	0	0	0.797413	-0.314964	0.598256	0.923877	1.5708	0	0
13.84	2.00544	1.45829	-0.430103	0.718063	-0.600406	0.981248	0.0651157	0.0912431	-0.304278	0.240084	0.0372361	0	0	0.0509362	-0.13544	-0.153882	0.398025	0.202417	0	0	-0.184778	0.21496	0.00709802	0.630031	-0.268108	0.315247	1.33189	1.5708	0	0	0.794248	-0.315076	0.595547	0.9271	1.5708	0	0
13.85	1.99041	1.46809	-0.416413	0.717739	-0.603347	0.979749	0.071178	0.0853841	-0.296982	0.230984	0.0353277	0	0	0.0479772	-0.12683	-0.155143	0.408686	0.208782	0	0	-0.175221	0.202286	0.00489306	0.626103	-0.266623	0.31426	1.33046	1.5708	0	0	0.792461	-0.318861	0.599644	0.932029	1.5708	0	0
13.86	1.97326	1.4548	-0.399974	0.716259	-0.606705	0.980802	0.074462	0.0936947	-0.305253	0.239906	0.030273	0	0	0.0345184	-0.14014	-0.155486	0.415976	0.212278	0	0	-0.180929	0.219078	-0.000138019	0.634094	-0.266884	0.32559	1.32525	1.5708	0	0	0.770908	-0.285337	0.341232	0.989875	0.732025	0	0
13.87	1.96661	1.45317	-0.394212	0.715252	-0.609935	0.98059	0.0786819	0.0941303	-0.305625	0.240834	0.0277244	0	0	0.0248015	-0.141465	-0.155416	0.422863	0.216281	0	0	-0.179445	0.219638	-0.00108647	0.634119	-0.267579	0.326038	1.32298	1.5708	0	0	0.768525	-0.284375	0.337404	0.992589	0.719149	0	0
13.88	1.96079	1.45185	-0.388846	0.714144	-0.613212	0.980349	0.0832195	0.094099	-0.306232	0.242048	0.0251711	0	0	0.014901	-0.142027	-0.154494	0.427993	0.219734	0	0	-0.177763	0.219876	-0.00248164	0.634288	-0.268162	0.326638	1.32056	1.5708	0	0	0.766257	-0.283615	0.335412	0.995067	0.711457	0	0
13.89	1.95409	1.45113	-0.382052	0.712908	-0.616497	0.98006	0.0883327	0.0933682	-0.306812	0.243653	0.0229878	0	0	0.00526694	-0.141737	-0.152648	0.431916	0.223594	0	0	-0.175511	0.219617	-0.00420013	0.633445	-0.269753	0.326673	1.31964	1.5708	0	0	0.763957	-0.282498	0.334355	0.996936	0.706943	0	0
13.9	1.94385	1.45046	-0.371468	0.711629	-0.619838	0.979729	0.0942084	0.0927094	-0.307298	0.245742	0.0207705	0	0	-0.00400788	-0.141293	-0.149937	0.434484	0.227604	0	0	-0.172843	0.219449	-0.00598468	0.632051	-0.271913	0.325854	1.31965	1.5708	0	0	0.761735	-0.281074	0.333275	0.998975	0.703719	0	0
13.91	1.92805	1.44977	-0.355543	0.710306	-0.623159	0.979333	0.101012	0.0921159	-0.308114	0.248438	0.0185375	0	0	-0.0132684	-0.14072	-0.147192	0.434403	0.229844	0	0	-0.169461	0.219643	-0.00772477	0.630945	-0.273732	0.324935	1.31913	1.5708	0	0	0.759131	-0.279644	0.330865	1.00228	0.701586	0	0
13.92	1.92449	1.44872	-0.351329	0.708962	-0.626639	0.978943	0.106625	0.0911963	-0.309917	0.251772	0.0167897	0	0	-0.0242974	-0.139942	-0.144707	0.431906	0.229581	0	0	-0.166546	0.217418	-0.0033914	0.62445	-0.27961	0.315237	1.32196	1.5708	0	0	0.777371	-0.309329	0.590867	0.944614	1.5708	0	0
13.93	1.88699	1.44836	-0.313583	0.707428	-0.630034	0.978377	0.116742	0.0908378	-0.311061	0.255151	0.014411	0	0	-0.0314943	-0.139266	-0.141898	0.426521	0.225134	0	0	-0.161878	0.220378	-0.0121036	0.630111	-0.276887	0.322928	1.31732	1.5708	0	0	0.754741	-0.276008	0.330155	1.00882	0.757414	0	0
13.94	1.87741	1.44708	-0.302952	0.705921	-0.633649	0.977873	0.12328	0.0902519	-0.313202	0.258295	0.0124502	0	0	-0.042963	-0.138384	-0.139753	0.417451	0.216421	0	0	-0.158399	0.21882	-0.00830531	0.624671	-0.282622	0.314061	1.31879	1.5708	0	0	0.773992	-0.304413	0.583906	0.947217	1.5708	0	0
13.95	1.84625	1.44601	-0.271054	0.704309	-0.637173	0.9772	0.132755	0.0900331	-0.315195	0.261707	0.0101809	0	0	-0.0526103	-0.137658	-0.137992	0.404572	0.207226	0	0	-0.153261	0.220181	-0.0112484	0.625857	-0.28417	0.315356	1.31546	1.5708	0	0	0.771127	-0.3009	0.574904	0.948474	1.5708	0	0
13.96	1.81376	1.44455	-0.237615	0.702666	-0.640747	0.976428	0.142402	0.0902191	-0.316692	0.264887	0.00786516	0	0	-0.0627589	-0.137112	-0.136449	0.388617	0.205466	0	0	-0.148063	0.221671	-0.0140258	0.627202	-0.286514	0.316931	1.31287	1.5708	0	0	0.770338	-0.29806	0.571539	0.949708	1.5708	0	0
13.97	1.77801	1.44227	-0.200543	0.700947	-0.644437	0.975544	0.152616	0.0910481	-0.318803	0.268055	0.00509504	0	0	-0.0727628	-0.137123	-0.134744	0.369909	0.211531	0	0	-0.142661	0.223981	-0.0169485	0.629091	-0.28915	0.317717	1.31072	1.5708	0	0	0.770098	-0.295552	0.569368	0.95147	1.5708	0	0
13.98	1.74266	1.43955	-0.163223	0.699137	-0.648283	0.974577	0.163343	0.091839	-0.322022	0.271899	0.00249596	0	0	-0.0833981	-0.137014	-0.132272	0.345708	0.217677	0	0	-0.137566	0.226597	-0.0202035	0.631638	-0.291836	0.317661	1.30867	1.5708	0	0	0.770333	-0.293264	0.567332	0.953739	1.5708	0	0
13.99	1.65987	1.44989	-0.0776501	0.695815	-0.653964	0.973885	0.20059	0.0632443	-0.373293	0.315515	0.013401	0	0	-0.0846799	-0.125555	-0.165429	0.311674	0.217328	0	0	-0.128774	0.218587	-0.0260227	0.637825	-0.294511	0.317736	1.30474	1.5708	0	0	0.771263	-0.288725	0.560862	0.954544	1.5708	0	0
14	1.66902	1.43282	-0.0855675	0.695454	-0.656237	0.972401	0.186595	0.0940049	-0.327769	0.280506	-0.00286044	0	0	-0.105222	-0.136595	-0.125404	0.280715	0.226977	0	0	-0.126774	0.232536	-0.0275725	0.637572	-0.29718	0.318007	1.30462	1.5708	0	0	0.770883	-0.289874	0.565968	0.960091	1.5708	0	0
14.01	1.63123	1.42911	-0.0448832	0.693517	-0.660442	0.971221	0.199213	0.0949352	-0.331117	0.284982	-0.00560959	0	0	-0.115169	-0.136151	-0.119096	0.241673	0.228145	0	0	-0.121094	0.235351	-0.0320376	0.640483	-0.300163	0.318	1.30241	1.5708	0	0	0.772276	-0.288505	0.567653	0.962056	1.5708	0	0
14.02	1.59037	1.4255	-6.37577e-05	0.691497	-0.664897	0.96993	0.21341	0.0950955	-0.335439	0.29046	-0.00814571	0	0	-0.122566	-0.135648	-0.111305	0.20299	0.224443	0	0	-0.115069	0.2376	-0.0376298	0.644086	-0.302848	0.318446	1.29855	1.5708	0	0	0.774501	-0.287062	0.568542	0.963903	1.5708	0	0
14.03	1.54978	1.42221	0.0450044	0.689423	-0.669567	0.968599	0.228542	0.0941738	-0.340431	0.296876	-0.0102185	0	0	-0.127869	-0.134847	-0.103287	0.167527	0.221146	0	0	-0.109269	0.23897	-0.0440264	0.648731	-0.305259	0.319798	1.29314	1.5708	0	0	0.777538	-0.285748	0.568391	0.966608	1.5708	0	0
14.04	1.48382	1.41122	0.109728	0.68705	-0.675329	0.967766	0.246631	0.101197	-0.350545	0.293827	-0.0237579	0	0	-0.124804	-0.140376	-0.100048	0.138999	0.220307	0	0	-0.102691	0.250405	-0.044697	0.657918	-0.310304	0.324631	1.28637	1.5708	0	0	0.778881	-0.280725	0.560557	0.968087	1.5708	0	0
14.05	1.44963	1.40769	0.148666	0.685037	-0.680203	0.966479	0.261911	0.0996303	-0.354653	0.300418	-0.0262266	0	0	-0.126008	-0.139482	-0.0922447	0.11201	0.219438	0	0	-0.0975485	0.250709	-0.0518776	0.663719	-0.311111	0.325338	1.27903	1.5708	0	0	0.7828	-0.28044	0.56178	0.971504	1.5708	0	0
14.06	1.41879	1.40449	0.183493	0.683143	-0.68516	0.965289	0.27674	0.0978832	-0.357276	0.306868	-0.0284616	0	0	-0.126906	-0.137996	-0.0843015	0.0859421	0.214643	0	0	-0.0935239	0.25018	-0.0579834	0.669808	-0.311564	0.325393	1.27164	1.5708	0	0	0.7874	-0.279852	0.562853	0.974709	1.5708	0	0
14.07	1.3902	1.40179	0.215288	0.68134	-0.690187	0.964205	0.291243	0.0956702	-0.358926	0.313274	-0.0304557	0	0	-0.127161	-0.135668	-0.076209	0.0616501	0.206816	0	0	-0.0904492	0.2487	-0.0629901	0.67527	-0.31186	0.323344	1.26549	1.5708	0	0	0.79235	-0.279111	0.563551	0.977848	1.5708	0	0
14.08	1.36479	1.40039	0.242224	0.679698	-0.695148	0.963326	0.304677	0.0926166	-0.359455	0.319354	-0.0319969	0	0	-0.126875	-0.131892	-0.0705631	0.040607	0.197427	0	0	-0.0887418	0.245459	-0.0659869	0.679833	-0.31143	0.319144	1.25991	1.5708	0	0	0.797106	-0.278562	0.564473	0.981685	1.5708	0	0
14.09	1.34499	1.40135	0.261863	0.67822	-0.699993	0.96286	0.315697	0.0879542	-0.359146	0.324388	-0.0326511	0	0	-0.127349	-0.126138	-0.0673994	0.0216058	0.186188	0	0	-0.0893087	0.239467	-0.066942	0.68334	-0.31004	0.312956	1.25439	1.5708	0	0	0.801823	-0.277506	0.564917	0.985418	1.5708	0	0
14.1	1.33001	1.40488	0.274515	0.676949	-0.704737	0.962922	0.324105	0.081676	-0.356699	0.328235	-0.032551	0	0	-0.128521	-0.118591	-0.0667692	0.0053247	0.173584	0	0	-0.0924352	0.230613	-0.0657197	0.686037	-0.307825	0.305821	1.24873	1.5708	0	0	0.806575	-0.275169	0.562679	0.986831	1.5708	0	0
